# xmcd
#
# Track frame offsets:
#	150
#	20815
#	39311
#	60199
#	95839
#	111331
#	129966
#	144467
#	167669
#	183387
#	197041
#	220863
#
# Disc length: 3279 seconds
#
# Revision: 0
# Processed by: cddbd v1.5.2PL0 Copyright (c) Steve Scherf et al.
# Submitted via: EZCDAudioConverter 7.1.5.1
#
DISCID=a70ccd0c
DTITLE=David Jacobs-Strain - Live
DYEAR=2015
DGENRE=Blues
TTITLE0=Josephine
TTITLE1=Raleigh
TTITLE2=Already Gone
TTITLE3=Big League Dreams
TTITLE4=Strong Believer
TTITLE5=Thank You Nice Lady
TTITLE6=Santa Fe
TTITLE7=Love Left The Building
TTITLE8=Give Your Love Away
TTITLE9=If We Only Knew How
TTITLE10=Biscuits and Gravy
TTITLE11=Done Changed My Way of Living
EXTD=
EXTT0=
EXTT1=
EXTT2=
EXTT3=
EXTT4=
EXTT5=
EXTT6=
EXTT7=
EXTT8=
EXTT9=
EXTT10=
EXTT11=
PLAYORDER=
